<svg width="570" height="730" viewBox="0 0 570 730" fill="none" xmlns="http://www.w3.org/2000/svg">
<path d="M492.273 0.121948H77.7273C57.1127 0.121948 37.3425 8.36098 22.7658 23.0266C8.1891 37.6921 0 57.5829 0 78.3232V651.799C0 672.539 8.1891 692.43 22.7658 707.095C37.3425 721.761 57.1127 730 77.7273 730H492.273C512.887 730 532.658 721.761 547.234 707.095C561.811 692.43 570 672.539 570 651.799V78.3232C570 57.5829 561.811 37.6921 547.234 23.0266C532.658 8.36098 512.887 0.121948 492.273 0.121948ZM77.7273 52.2561H492.273C499.144 52.2561 505.734 55.0024 510.593 59.891C515.452 64.7795 518.182 71.4098 518.182 78.3232V260.793H51.8182V78.3232C51.8182 71.4098 54.5479 64.7795 59.4068 59.891C64.2657 55.0024 70.8558 52.2561 77.7273 52.2561ZM518.182 651.799C518.182 658.712 515.452 665.342 510.593 670.231C505.734 675.12 499.144 677.866 492.273 677.866H77.7273C70.8558 677.866 64.2657 675.12 59.4068 670.231C54.5479 665.342 51.8182 658.712 51.8182 651.799V312.927H518.182V651.799Z" fill="#161616"/>
<path d="M440.455 625.732C447.326 625.732 453.916 622.985 458.775 618.097C463.634 613.208 466.364 606.578 466.364 599.665V391.128C466.364 384.215 463.634 377.584 458.775 372.696C453.916 367.807 447.326 365.061 440.455 365.061C433.583 365.061 426.993 367.807 422.134 372.696C417.275 377.584 414.545 384.215 414.545 391.128V599.665C414.545 606.578 417.275 613.208 422.134 618.097C426.993 622.985 433.583 625.732 440.455 625.732Z" fill="#161616"/>
<path d="M129.545 417.153C132.931 417.112 136.276 416.404 139.391 415.068C142.53 413.748 145.422 411.896 147.941 409.594C150.342 407.158 152.242 404.269 153.531 401.094C154.82 397.918 155.474 394.517 155.454 391.086C155.359 384.185 152.675 377.574 147.941 372.579L144.054 369.451C142.61 368.464 141.042 367.675 139.391 367.104C137.848 366.311 136.184 365.782 134.468 365.54C131.144 364.762 127.687 364.762 124.363 365.54L119.7 367.104C118.049 367.675 116.48 368.464 115.036 369.451L111.15 372.579C106.415 377.574 103.732 384.185 103.636 391.086C103.636 398 106.366 404.63 111.225 409.518C116.084 414.407 122.674 417.153 129.545 417.153Z" fill="#161616"/>
<path d="M214.786 409.677C217.195 412.121 220.06 414.06 223.217 415.383C226.375 416.707 229.761 417.388 233.181 417.388C236.602 417.388 239.988 416.707 243.146 415.383C246.303 414.06 249.168 412.121 251.577 409.677C253.866 407.144 255.706 404.234 257.018 401.075C258.345 397.941 259.05 394.576 259.091 391.17C258.995 384.268 256.311 377.657 251.577 372.662C250.302 371.483 248.914 370.435 247.431 369.534C246.109 368.502 244.619 367.709 243.027 367.188C241.484 366.394 239.82 365.866 238.104 365.624C234.78 364.846 231.323 364.846 228 365.624L223.336 367.188C221.685 367.759 220.117 368.548 218.672 369.534C217.315 370.497 216.017 371.541 214.786 372.662C212.387 375.109 210.532 378.041 209.345 381.264C207.974 384.385 207.266 387.758 207.266 391.17C207.266 394.581 207.974 397.955 209.345 401.075C210.657 404.234 212.497 407.144 214.786 409.677Z" fill="#161616"/>
<path d="M336.818 417.195C343.689 417.195 350.28 414.449 355.138 409.56C359.997 404.672 362.727 398.041 362.727 391.128C362.632 384.226 359.948 377.616 355.213 372.62C353.939 371.441 352.55 370.393 351.068 369.492C349.745 368.46 348.255 367.667 346.663 367.146C345.121 366.352 343.457 365.824 341.741 365.582C336.777 364.526 331.609 365.074 326.972 367.146C323.792 368.387 320.887 370.247 318.422 372.62C313.688 377.616 311.004 384.226 310.909 391.128C310.909 398.041 313.638 404.672 318.497 409.56C323.356 414.449 329.946 417.195 336.818 417.195Z" fill="#161616"/>
<path d="M129.545 521.422C132.931 521.38 136.276 520.672 139.391 519.336C142.53 518.016 145.422 516.165 147.941 513.862C150.342 511.426 152.242 508.538 153.531 505.362C154.82 502.186 155.474 498.785 155.454 495.355C155.359 488.453 152.675 481.842 147.941 476.847C146.709 475.726 145.412 474.681 144.054 473.719C142.61 472.732 141.042 471.943 139.391 471.373C137.848 470.579 136.184 470.05 134.468 469.809C131.144 469.03 127.687 469.03 124.363 469.809L119.7 471.373C118.049 471.943 116.48 472.732 115.036 473.719C113.679 474.681 112.381 475.726 111.15 476.847C106.415 481.842 103.732 488.453 103.636 495.355C103.636 502.268 106.366 508.898 111.225 513.787C116.084 518.675 122.674 521.422 129.545 521.422Z" fill="#161616"/>
<path d="M214.786 513.987C217.195 516.43 220.06 518.37 223.217 519.693C226.375 521.016 229.761 521.698 233.181 521.698C236.602 521.698 239.988 521.016 243.146 519.693C246.303 518.37 249.168 516.43 251.577 513.987C253.866 511.453 255.706 508.544 257.018 505.385C258.389 502.265 259.097 498.891 259.097 495.479C259.097 492.068 258.389 488.694 257.018 485.574C255.785 482.374 253.936 479.451 251.577 476.972C250.302 475.792 248.914 474.745 247.431 473.844C246.109 472.812 244.619 472.018 243.027 471.498C241.484 470.704 239.82 470.175 238.104 469.934C233.942 469.095 229.638 469.298 225.572 470.526C221.506 471.753 217.802 473.967 214.786 476.972C212.427 479.451 210.578 482.374 209.345 485.574C207.974 488.694 207.266 492.068 207.266 495.479C207.266 498.891 207.974 502.265 209.345 505.385C210.657 508.544 212.497 511.453 214.786 513.987Z" fill="#161616"/>
<path d="M318.422 513.987C322.046 517.663 326.676 520.171 331.722 521.189C336.768 522.207 342.001 521.691 346.754 519.705C351.506 517.72 355.564 514.356 358.409 510.041C361.254 505.726 362.757 500.657 362.727 495.48C362.632 488.578 359.948 481.967 355.213 476.972C353.939 475.792 352.55 474.745 351.068 473.844C349.745 472.812 348.255 472.018 346.663 471.498C345.121 470.704 343.457 470.175 341.741 469.934C336.777 468.878 331.609 469.425 326.972 471.498C323.757 472.669 320.837 474.536 318.419 476.969C316.002 479.401 314.145 482.339 312.982 485.574C311.531 488.668 310.821 492.06 310.909 495.48C310.868 498.869 311.484 502.233 312.722 505.385C314.225 508.5 316.142 511.394 318.422 513.987Z" fill="#161616"/>
<path d="M129.545 625.69C132.931 625.649 136.276 624.94 139.391 623.605C142.53 622.284 145.422 620.433 147.941 618.13C150.342 615.695 152.242 612.806 153.531 609.63C154.82 606.454 155.474 603.053 155.454 599.623C155.359 592.721 152.675 586.111 147.941 581.115L144.054 577.987C142.61 577.001 141.042 576.212 139.391 575.641C137.848 574.847 136.184 574.319 134.468 574.077C131.144 573.299 127.687 573.299 124.363 574.077L119.7 575.641C118.049 576.212 116.48 577.001 115.036 577.987L111.15 581.115C106.415 586.111 103.732 592.721 103.636 599.623C103.636 606.536 106.366 613.166 111.225 618.055C116.084 622.944 122.674 625.69 129.545 625.69Z" fill="#161616"/>
<path d="M214.786 618.255C217.195 620.699 220.06 622.638 223.217 623.961C226.375 625.285 229.761 625.966 233.181 625.966C236.602 625.966 239.988 625.285 243.146 623.961C246.303 622.638 249.168 620.699 251.577 618.255C253.866 615.722 255.706 612.812 257.018 609.653C258.389 606.533 259.097 603.159 259.097 599.748C259.097 596.336 258.389 592.963 257.018 589.842C255.785 586.643 253.936 583.719 251.577 581.24C250.302 580.061 248.914 579.013 247.431 578.112C246.109 577.08 244.619 576.287 243.027 575.766C241.484 574.972 239.82 574.444 238.104 574.202C233.942 573.364 229.638 573.567 225.572 574.794C221.506 576.021 217.802 578.235 214.786 581.24C212.427 583.719 210.578 586.643 209.345 589.842C207.974 592.963 207.266 596.336 207.266 599.748C207.266 603.159 207.974 606.533 209.345 609.653C210.657 612.812 212.497 615.722 214.786 618.255Z" fill="#161616"/>
<path d="M336.818 625.732C343.689 625.732 350.28 622.985 355.138 618.097C359.997 613.208 362.727 606.578 362.727 599.665C362.632 592.763 359.948 586.152 355.213 581.157C353.939 579.978 352.55 578.93 351.068 578.029C349.745 576.997 348.255 576.204 346.663 575.683C345.121 574.889 343.457 574.361 341.741 574.119C336.777 573.063 331.609 573.61 326.972 575.683C323.757 576.854 320.837 578.722 318.419 581.154C316.002 583.587 314.145 586.524 312.982 589.759C311.531 592.853 310.821 596.245 310.909 599.665C310.909 606.578 313.639 613.208 318.497 618.097C323.356 622.985 329.946 625.732 336.818 625.732Z" fill="#161616"/>
</svg>
